PathFileType	3	(X/Y/Z)	C:\Users\koon_\Desktop\
DataRate	CameraRate	NumFrames	NumMarkers	Units	OrigDataRate	OrigDataStartFrame	OrigNumFrames
100.0	100.0	10	27	mm	100.0	2589	5176	
Frame#	Time	get:LFHD			get:RFHD			get:LBHD			get:RBHD			get:C7			get:T10			get:CLAV			get:STRN			get:RBAK			get:LSHO			get:LUPA			get:LELB			get:LFRA			get:LWRA			get:LWRB			get:LFIN			get:RSHO			get:RUPA			get:RELB			get:RFRA			get:RWRA			get:RWRB			get:RFIN			get:LASI			get:RASI			get:LPSI			get:RPSI			
		X1	Y1	Z1	X2	Y2	Z2	X3	Y3	Z3	X4	Y4	Z4	X5	Y5	Z5	X6	Y6	Z6	X7	Y7	Z7	X8	Y8	Z8	X9	Y9	Z9	X10	Y10	Z10	X11	Y11	Z11	X12	Y12	Z12	X13	Y13	Z13	X14	Y14	Z14	X15	Y15	Z15	X16	Y16	Z16	X17	Y17	Z17	X18	Y18	Z18	X19	Y19	Z19	X20	Y20	Z20	X21	Y21	Z21	X22	Y22	Z22	X23	Y23	Z23	X24	Y24	Z24	X25	Y25	Z25	X26	Y26	Z26	X27	Y27	Z27	
2589	25.88	91.420357	1574.4861	-62.607765	-65.404312	1566.4016	-56.689011	81.409546	1568.6505	-187.31285	-44.892338	1573.6517	-202.14754	17.773848	1379.1677	-224.52995	18.362074	1121.8975	-248.37701	17.221581	1306.4751	-39.015415	28.991594	1120.903	8.7612715	-61.278225	1314.451	-251.00926	167.162	1377.5033	-140.89462	272.20471	1279.626	-123.21276	359.82501	1125.3204	-130.58217	436.76059	1077.6869	-45.808044	485.25516	1007.1684	-0.42020291	485.45898	978.95923	-64.26535	555.92346	942.07886	-23.148983	-122.95039	1374.7386	-143.1727	-288.95129	1237.8292	-116.45354	-335.59396	1129.901	-134.90932	-407.91257	1123.7197	-59.038467	-504.38239	1018.7598	3.4189482	-490.75415	986.40527	-61.542847	-569.18677	980.65668	-25.379812	151.35921	935.01794	-51.28344	-124.43336	923.17438	-51.297184	66.633339	963.44733	-249.3492	-41.408573	955.09015	-251.15916
2590	25.89	91.297089	1574.5319	-62.820202	-65.510773	1566.4237	-56.903744	81.332314	1568.8048	-187.58275	-44.976147	1573.7745	-202.40166	17.591984	1379.0521	-225.26505	18.400883	1121.9813	-248.29495	17.249428	1306.9053	-39.233326	29.122221	1121.298	8.7742529	-61.255077	1314.4458	-251.2458	166.40584	1378.4579	-141.28052	273.26907	1283.5963	-123.87267	364.32922	1131.2047	-129.60849	443.32809	1087.0354	-44.844967	494.09909	1018.414	1.0531653	494.01324	989.02789	-61.909626	566.14252	954.98346	-21.302731	-122.33484	1375.4708	-143.6945	-291.08835	1243.2026	-117.02143	-340.465	1136.3514	-133.92905	-413.6936	1133.5492	-58.828892	-513.47589	1032.3743	4.7576613	-500.38184	998.55048	-59.489544	-579.33295	995.69763	-24.06612	151.38257	935.03351	-51.293423	-124.38575	923.17371	-51.357944	66.688217	963.43842	-249.37439	-41.392452	955.02802	-251.13719
2591	25.9	91.183182	1574.6416	-63.04834	-65.661003	1566.4559	-57.197098	81.226921	1568.9197	-187.79907	-45.087086	1573.8634	-202.68953	17.471388	1379.1047	-226.23468	18.396379	1122.0559	-248.20447	17.163067	1307.2949	-39.420399	29.202017	1121.7345	8.5187578	-61.165562	1314.47	-251.53023	165.58395	1379.3457	-141.81444	274.30051	1287.5194	-124.51105	368.72598	1137.1549	-128.60277	449.71619	1096.4772	-44.023457	503.05557	1030.4572	2.5120382	502.29901	999.24872	-59.716473	575.85632	967.89038	-19.717428	-121.71599	1376.2396	-144.23711	-293.10428	1248.6155	-117.46795	-345.2117	1143.0276	-133.15625	-419.08783	1143.4606	-58.664158	-522.03314	1046.1813	5.8681188	-509.5235	1011.0986	-57.737194	-588.51556	1011.1556	-23.029673	151.40668	935.04388	-51.336567	-124.36851	923.1781	-51.425098	66.687279	963.43829	-249.37428	-41.343201	955.04382	-251.15376
2592	25.91	91.034744	1574.694	-63.288609	-65.80043	1566.4706	-57.439648	81.101021	1569.0529	-188.04059	-45.39613	1573.749	-202.20059	17.382088	1379.0728	-226.97012	18.423586	1122.149	-248.1167	17.074516	1307.7378	-39.519463	29.24876	1122.1075	8.4520521	-61.063641	1314.5284	-251.82968	164.73845	1380.2487	-142.29742	275.2092	1291.4589	-125.18944	372.95605	1143.1704	-127.74266	455.85727	1106.0677	-43.350704	511.32095	1042.2612	3.6717453	510.27078	1009.5746	-57.715591	584.91101	980.72247	-18.354389	-121.07912	1376.9808	-144.78516	-294.95871	1254.1016	-118.13477	-349.91742	1149.8688	-132.43399	-424.11365	1153.5079	-58.441872	-530.17004	1060.1565	6.8891692	-518.33087	1023.8698	-56.163219	-597.71277	1026.8948	-22.149605	151.43864	935.10968	-51.330509	-124.32964	923.19025	-51.396843	66.735458	963.45526	-249.44324	-41.301262	955.02777	-251.16548
2593	25.92	90.895683	1574.7872	-63.565365	-65.96508	1566.5105	-57.750763	81.00248	1569.1781	-188.22357	-45.362915	1573.9978	-203.06226	17.29755	1378.9849	-227.59842	18.439968	1122.2418	-248.05824	16.952921	1308.1201	-39.645496	29.245226	1122.5225	8.428319	-60.9856	1314.5269	-251.96359	163.89182	1381.1249	-142.69803	276.07175	1295.4061	-125.92134	377.02713	1149.2377	-126.93896	461.67822	1115.7052	-42.900627	519.31195	1054.203	4.6780791	517.99176	1020.0697	-55.923183	593.79376	993.77289	-17.291674	-120.44643	1377.7452	-145.27481	-296.67978	1259.6646	-118.76673	-354.35654	1156.8203	-131.66933	-428.83139	1163.652	-58.375576	-537.81439	1074.2667	7.72228	-526.69153	1036.7384	-54.736282	-606.21643	1042.7267	-21.394398	151.50902	934.90466	-52.052341	-124.32393	923.19092	-51.392403	66.782845	963.45642	-249.42188	-41.262775	955.07263	-251.19194
2594	25.93	90.76313	1574.8932	-63.733234	-66.095398	1566.5546	-57.99268	80.881165	1569.2949	-188.4343	-45.471035	1574.0865	-203.3886	17.183569	1378.9116	-228.26649	18.470795	1122.3484	-248.03682	16.879538	1308.5117	-39.700874	29.204647	1122.9493	8.3767023	-60.790913	1314.6238	-252.29231	163.03067	1382.0521	-143.20497	276.80109	1299.4226	-126.67634	380.9852	1155.5927	-126.09823	467.33929	1125.5773	-42.55357	526.88507	1066.2485	5.4709148	525.33875	1030.6971	-54.313015	602.27594	1006.9036	-16.429007	-119.79321	1378.5333	-145.84425	-298.20602	1265.2916	-119.213	-358.68011	1163.8976	-130.89079	-433.23959	1173.865	-58.207615	-545.00116	1088.4365	8.3008156	-534.57538	1049.7416	-53.391949	-614.08136	1058.5415	-20.967104	151.48596	935.05646	-51.752579	-124.3024	923.24255	-51.411865	66.779755	963.48785	-249.4184	-41.26091	955.07202	-251.17967
2595	25.94	90.59359	1574.996	-63.949764	-66.246422	1566.5513	-58.292202	80.773193	1569.3995	-188.65285	-45.605881	1574.0863	-203.5724	17.136786	1378.9614	-229.04277	18.51952	1122.4363	-248.05411	16.750265	1308.9801	-39.799225	29.248159	1123.3845	8.4001284	-60.637817	1314.6873	-252.53934	162.17978	1383.0233	-143.64098	277.50171	1303.4829	-127.50639	384.77649	1162.042	-125.41388	472.65906	1135.5547	-42.239876	534.10864	1078.3986	6.1325402	532.38153	1041.4752	-52.79892	610.38074	1020.1697	-15.79304	-119.13741	1379.3549	-146.38805	-299.66306	1270.9988	-119.90689	-362.76309	1171.2573	-130.56195	-437.36621	1184.1268	-58.242344	-551.72888	1102.6837	8.7525225	-542.16211	1062.8602	-52.285736	-621.73926	1074.3458	-20.318274	151.45035	935.10071	-51.869419	-124.30058	923.24066	-51.41172	66.800797	963.52155	-249.36235	-41.196777	955.07416	-251.17642
2596	25.95	90.40126	1575.1229	-64.140144	-66.370522	1566.6334	-58.510376	80.675064	1569.4918	-188.83542	-45.940903	1573.8857	-203.76114	17.015966	1378.8883	-229.61282	18.516998	1122.4613	-247.97862	16.689419	1309.4104	-39.723316	29.180466	1123.7848	8.3373632	-60.478916	1314.7472	-252.80109	161.27228	1383.9384	-144.15216	278.19501	1307.5406	-128.45686	388.41995	1168.5116	-124.82489	477.54602	1145.4008	-42.07814	540.83313	1090.6039	6.764123	539.11249	1052.4309	-51.383007	618.341	1033.7924	-15.353338	-118.47945	1380.1021	-146.91794	-301.01047	1276.6488	-120.56464	-366.63657	1178.79	-130.28436	-441.17654	1194.4156	-58.208279	-558.13812	1117.0172	8.9000273	-549.20502	1076.0879	-51.214581	-628.66864	1090.2255	-20.148849	151.42763	935.08832	-51.585964	-124.26516	923.26746	-51.37878	66.806587	963.57233	-249.35954	-41.2108	955.10956	-251.17567
2597	25.96	90.205696	1575.208	-64.342171	-66.565964	1566.666	-58.756306	80.586952	1569.5653	-188.99754	-46.052849	1573.9071	-204.00272	16.943872	1378.8451	-230.21832	18.555328	1122.5442	-247.92062	16.5914	1309.8247	-39.986851	29.139555	1124.1934	8.3556929	-60.347378	1314.781	-252.97659	160.33055	1384.8235	-144.64558	278.78793	1311.5238	-129.44077	392.05444	1175.1307	-124.39452	482.20505	1155.3461	-41.987114	547.25342	1102.9519	7.3186626	545.63184	1063.4883	-50.140388	625.46619	1047.2756	-14.98737	-117.82272	1380.8392	-147.42912	-302.15317	1282.285	-121.18929	-370.33737	1186.0415	-129.73695	-444.68927	1204.7131	-58.484226	-564.15973	1131.4088	8.8377295	-555.99091	1089.526	-50.62981	-635.00305	1106.2474	-20.572424	151.43356	935.11829	-51.478905	-124.24277	923.28723	-51.348465	66.827682	963.56445	-249.29425	-41.219967	955.13147	-251.13812
2598	25.97	90.051857	1575.3477	-64.461578	-66.745865	1566.7458	-59.012077	80.474487	1569.6283	-189.16463	-45.8876	1574.1312	-204.37271	16.835966	1378.8584	-230.95062	18.556097	1122.594	-247.87646	16.459606	1310.2227	-40.040768	29.050596	1124.5868	8.3522482	-60.239788	1314.7296	-253.04729	159.29147	1385.7031	-145.12987	279.26117	1315.5085	-130.50388	395.68936	1181.9349	-124.13403	486.7142	1165.3807	-42.037037	553.26758	1115.2488	7.6995945	551.92828	1074.7977	-48.941021	632.40643	1061.0167	-14.703877	-117.17818	1381.5527	-147.91817	-303.13275	1287.8213	-121.98753	-373.85538	1193.3348	-129.35564	-447.89716	1214.9388	-58.625744	-569.74792	1145.851	8.6614351	-562.34772	1103.0704	-50.1632	-641.33069	1122.1646	-20.421988	151.39694	935.13452	-51.410648	-124.27682	923.28998	-51.323929	66.862335	963.59229	-249.24365	-41.194809	955.15057	-251.0659
